<svg width="417" height="499" viewBox="0 0 417 499" fill="none" xmlns="http://www.w3.org/2000/svg">
<rect width="322" height="440" rx="55" fill="#DAE8EB"/>
<path d="M411.242 329.65C407.549 321.108 402.225 313.368 395.566 306.862C388.903 300.337 381.047 295.151 372.425 291.587C363.484 287.877 353.895 285.978 344.214 286C330.632 286 317.381 289.716 305.865 296.734C303.11 298.413 300.493 300.257 298.014 302.266C295.534 300.257 292.917 298.413 290.162 296.734C278.646 289.716 265.395 286 251.813 286C242.033 286 232.556 287.872 223.603 291.587C214.952 295.165 207.156 300.312 200.461 306.862C193.794 313.36 188.468 321.103 184.785 329.65C180.956 338.54 179 347.98 179 357.695C179 366.86 180.873 376.41 184.593 386.125C187.706 394.244 192.169 402.666 197.871 411.17C206.908 424.629 219.332 438.665 234.76 452.894C260.326 476.48 285.644 492.773 286.718 493.434L293.248 497.617C296.14 499.461 299.859 499.461 302.752 497.617L309.281 493.434C310.356 492.746 335.646 476.48 361.24 452.894C376.667 438.665 389.092 424.629 398.128 411.17C403.831 402.666 408.322 394.244 411.407 386.125C415.126 376.41 417 366.86 417 357.695C417.027 347.98 415.071 338.54 411.242 329.65V329.65Z" fill="#F21E1E" fill-opacity="0.59"/>
<path d="M219.25 163H142.75C135.708 163 130 167.876 130 173.892V239.244C130 245.259 135.708 250.136 142.75 250.136H219.25C226.292 250.136 232 245.259 232 239.244V173.892C232 167.876 226.292 163 219.25 163Z" stroke="#C4C4C4" strokeWidth="5" strokeLinecap="round" strokeLinejoin="round"/>
<path d="M155.5 217.46H206.5M168.25 184.784V228.352V184.784ZM193.75 184.784V228.352V184.784ZM155.5 195.676H206.5H155.5Z" stroke="#C4C4C4" strokeWidth="5" stroke-linecap="round" stroke-linejoin="round"/>
<circle cx="268" cy="28" r="5" fill="#C4C4C4"/>
<ellipse cx="249.5" cy="53.5" rx="7.5" ry="10.5" fill="#C4C4C4"/>
<path d="M248 27.5C248 30.5376 241.06 33 232.5 33C223.94 33 217 30.5376 217 27.5C217 24.4624 223.94 22 232.5 22C241.06 22 248 24.4624 248 27.5Z" fill="#C4C4C4"/>
<ellipse cx="24.5" cy="305" rx="10.5" ry="19" fill="#C4C4C4"/>
<circle cx="49.5" cy="334.5" r="10.5" fill="#C4C4C4"/>
<ellipse cx="72" cy="294.5" rx="7" ry="10.5" fill="#C4C4C4"/>
<g clip-path="url(#clip0_8_5)">
<path fill-rule="evenodd" clip-rule="evenodd" d="M12.5 109.719V48.125C12.5 45.7049 13.5009 43.3839 15.2825 41.6727C17.0641 39.9614 19.4804 39 22 39H60C62.5196 39 64.9359 39.9614 66.7175 41.6727C68.4991 43.3839 69.5 45.7049 69.5 48.125V109.719C69.5003 110.115 69.3932 110.504 69.1892 110.849C68.9853 111.193 68.6915 111.48 68.3368 111.682C67.9821 111.885 67.5787 111.994 67.1663 112.001C66.7539 112.008 66.3468 111.912 65.985 111.722L41 98.6273L16.015 111.722C15.6532 111.912 15.2461 112.008 14.8337 112.001C14.4213 111.994 14.0179 111.885 13.6632 111.682C13.3085 111.48 13.0147 111.193 12.8108 110.849C12.6068 110.504 12.4997 110.115 12.5 109.719ZM35.5565 62.4786C35.3357 62.2665 35.0735 62.0983 34.785 61.9835C34.4965 61.8687 34.1873 61.8096 33.875 61.8096C33.5627 61.8096 33.2535 61.8687 32.965 61.9835C32.6765 62.0983 32.4143 62.2665 32.1935 62.4786C31.9727 62.6907 31.7975 62.9425 31.678 63.2196C31.5585 63.4968 31.497 63.7938 31.497 64.0938C31.497 64.3937 31.5585 64.6907 31.678 64.9679C31.7975 65.245 31.9727 65.4968 32.1935 65.7089L37.6418 70.9375L32.1935 76.1661C31.9727 76.3782 31.7975 76.63 31.678 76.9071C31.5585 77.1843 31.497 77.4813 31.497 77.7812C31.497 78.0812 31.5585 78.3782 31.678 78.6554C31.7975 78.9325 31.9727 79.1843 32.1935 79.3964C32.4143 79.6085 32.6765 79.7767 32.965 79.8915C33.2535 80.0063 33.5627 80.0654 33.875 80.0654C34.1873 80.0654 34.4965 80.0063 34.785 79.8915C35.0735 79.7767 35.3357 79.6085 35.5565 79.3964L41 74.1632L46.4435 79.3964C46.8895 79.8247 47.4943 80.0654 48.125 80.0654C48.7557 80.0654 49.3605 79.8247 49.8065 79.3964C50.2525 78.968 50.503 78.387 50.503 77.7812C50.503 77.1755 50.2525 76.5945 49.8065 76.1661L44.3582 70.9375L49.8065 65.7089C50.2525 65.2805 50.503 64.6995 50.503 64.0938C50.503 63.488 50.2525 62.907 49.8065 62.4786C49.3605 62.0503 48.7557 61.8096 48.125 61.8096C47.4943 61.8096 46.8895 62.0503 46.4435 62.4786L41 67.7118L35.5565 62.4786Z" fill="#C4C4C4"/>
</g>
<defs>
<clipPath id="clip0_8_5">
<rect width="76" height="73" fill="white" transform="translate(3 39)"/>
</clipPath>
</defs>
</svg>